#tb 0: 1/25
#media_type 0: video
#codec_id 0: rawvideo
#dimensions 0: 416x240
#sar 0: 0/1
0,          0,          0,        1,   299520, 0x011fa852
0,          1,          1,        1,   299520, 0x25977488
0,          2,          2,        1,   299520, 0x1334cb3b
0,          3,          3,        1,   299520, 0xc1b6c3fb
0,          4,          4,        1,   299520, 0x1e6cc08d
0,          5,          5,        1,   299520, 0x4a814f09
0,          6,          6,        1,   299520, 0xb75f364c
0,          7,          7,        1,   299520, 0xaa7229c6
0,          8,          8,        1,   299520, 0x996e9d73
0,          9,          9,        1,   299520, 0xbbcf264e
0,         10,         10,        1,   299520, 0x177a5af3
0,         11,         11,        1,   299520, 0x22d7cc8b
0,         12,         12,        1,   299520, 0xc18a5d10
0,         13,         13,        1,   299520, 0xa6909d6e
0,         14,         14,        1,   299520, 0x14540bfd
0,         15,         15,        1,   299520, 0x5c850051
0,         16,         16,        1,   299520, 0x918e9b48
0,         17,         17,        1,   299520, 0x08036b6b
0,         18,         18,        1,   299520, 0x3da628b2
0,         19,         19,        1,   299520, 0x6f9705d8
0,         20,         20,        1,   299520, 0x0ec331b1
0,         21,         21,        1,   299520, 0x2e33b85b
0,         22,         22,        1,   299520, 0x294bff6f
0,         23,         23,        1,   299520, 0x5d3ae6d2
0,         24,         24,        1,   299520, 0xf9e78243
0,         25,         25,        1,   299520, 0x391019f8
0,         26,         26,        1,   299520, 0xb5d622c2
0,         27,         27,        1,   299520, 0xeb0980d7
0,         28,         28,        1,   299520, 0x6c070ba3
0,         29,         29,        1,   299520, 0x5463d9ed
0,         30,         30,        1,   299520, 0x8cb7d074
0,         31,         31,        1,   299520, 0x36ce96ae
